M48
METRIC,LZ,000.000
;FILE_FORMAT=3:3
;TYPE=PLATED
;Layer: PTH_Through
;EasyEDA v6.5.51, 2025-12-13 17:55:45
;171fd7096f4d4aa8bf2058c3f6bcc806,324dd03f55b54ef1918ba81d68900132,10
;Gerber Generator version 0.2
;Holesize 1 = 0.600 mm
T01C0.600
;Holesize 2 = 0.712 mm
T02C0.712
;Holesize 3 = 0.800 mm
T03C0.800
;Holesize 4 = 0.900 mm
T04C0.900
;Holesize 5 = 1.000 mm
T05C1.000
;Holesize 6 = 1.050 mm
T06C1.050
;Holesize 7 = 1.200 mm
T07C1.200
;Holesize 8 = 1.301 mm
T08C1.301
;Holesize 9 = 1.524 mm
T09C1.524
;Holesize 10 = 2.800 mm
T10C2.800
;Holesize 11 = 3.201 mm
T11C3.201
%
G05
G90
T01
X014718Y043048G85X014718Y043948
X019318Y044048G85X019318Y044948
X019318Y048048G85X019318Y048948
X019318Y051048G85X019318Y051948
T02
X047752Y020574
X047752Y018034
X047752Y023114
T03
X054102Y021300
X054102Y029500
T04
X034798Y022352
X042418Y022352
T05
X009906Y022860
X009906Y020320
X009906Y017780
X009906Y015240
X009906Y012700
X009906Y010160
X009906Y007620
X009906Y005080
X025146Y005080
X025146Y007620
X025146Y010160
X025146Y012700
X025146Y015240
X025146Y017780
X025146Y020320
X025146Y022860
X015240Y038354
X015240Y030734
X005842Y036576
X005842Y039116
X005842Y041656
X005842Y044196
X029718Y015240
X008890Y041656
T06
X009906Y017780
T07
X060198Y016007
X062738Y015997
X057658Y016007
T08
X063627Y047749G85X063627Y047754
X063627Y042669G85X063627Y042674
T09
X041783Y044831
X046863Y042299
X046990Y032004
X036830Y042418
X036956Y032123
T10
X063830Y032398
X060426Y037198
T11
X057582Y032398
M30
