M48
METRIC,LZ,000.000
;FILE_FORMAT=3:3
;TYPE=PLATED
;Layer: PTH_Through
;EasyEDA v6.5.51, 2025-12-30 14:43:18
;ec49201fdd3f43518bfe0915460f822b,324dd03f55b54ef1918ba81d68900132,10
;Gerber Generator version 0.2
;Holesize 1 = 0.600 mm
T01C0.600
;Holesize 2 = 1.000 mm
T02C1.000
;Holesize 3 = 1.050 mm
T03C1.050
;Holesize 4 = 1.524 mm
T04C1.524
%
G05
G90
T01
X014718Y043048G85X014718Y043948
X019318Y044048G85X019318Y044948
X019318Y048048G85X019318Y048948
X019318Y051048G85X019318Y051948
X047752Y020574
X047752Y018034
X047752Y023114
T02
X009906Y022860
X009906Y020320
X009906Y017780
X009906Y015240
X009906Y012700
X009906Y010160
X009906Y007620
X009906Y005080
X025146Y005080
X025146Y007620
X025146Y010160
X025146Y012700
X025146Y015240
X025146Y017780
X025146Y020320
X025146Y022860
X015240Y038354
X015240Y030734
X005842Y036576
X005842Y039116
X005842Y041656
X005842Y044196
X054102Y021300
X054102Y029500
X034798Y022352
X042418Y022352
X063627Y047599G85X063627Y047905
X063627Y042519G85X063627Y042825
X060198Y016007
X062738Y015997
X057658Y016007
X029718Y015240
X008890Y041656
X007112Y033020
X013208Y033274
T03
X009906Y017780
T04
X041783Y044831
X046863Y042299
X046990Y032004
X036830Y042418
X036956Y032123
M30
