G04 Layer: BottomLayer*
G04 EasyEDA v6.5.51, 2025-12-13 17:55:45*
G04 171fd7096f4d4aa8bf2058c3f6bcc806,324dd03f55b54ef1918ba81d68900132,10*
G04 Gerber Generator version 0.2*
G04 Scale: 100 percent, Rotated: No, Reflected: No *
G04 Dimensions in millimeters *
G04 leading zeros omitted , absolute positions ,4 integer and 5 decimal *
%FSLAX45Y45*%
%MOMM*%

%ADD10C,1.0000*%
%ADD11C,1.7000*%
%ADD12C,1.8800*%
%ADD13O,0.999998X2.099996*%
%ADD14C,1.8000*%
%ADD15C,0.0131*%
%ADD16C,3.5992*%
%ADD17C,3.2004*%
%ADD18C,1.6000*%
%ADD19C,1.8796*%
%ADD20C,2.4130*%
%ADD21R,2.4130X2.4130*%
%ADD22C,2.7940*%
%ADD23O,1.799996X2.599995*%
%ADD24R,1.8000X2.6000*%
%ADD25O,2.032X1.27*%

%LPD*%
D10*
X6273800Y1599704D02*
G01*
X6273800Y1571078D01*
X6089141Y1386420D01*
X3673932Y1386420D01*
X2601086Y2459266D01*
X2436825Y2459266D01*
X1737334Y1759775D01*
X1737334Y1254747D01*
X990600Y508012D01*
X584200Y4419612D02*
G01*
X925906Y4761318D01*
X1762683Y4761318D01*
X1860804Y4663198D01*
X2896057Y4663198D01*
X3208858Y4975999D01*
X6459499Y4975999D01*
X6694881Y4740617D01*
X6694881Y1734553D01*
X6208140Y1247813D01*
X2536799Y1247813D01*
X2514600Y1270012D01*
X4775200Y2057387D02*
G01*
X4419600Y2057387D01*
X4241800Y2235187D01*
X1402130Y3073387D02*
G01*
X1524000Y3073387D01*
X990600Y1016012D02*
G01*
X805078Y1201534D01*
X805078Y2476334D01*
X1402130Y3073387D01*
X1402130Y3073387D02*
G01*
X1402130Y3093681D01*
X584200Y3911612D01*
X584200Y3911612D02*
G01*
X412140Y4083672D01*
X412140Y4488827D01*
X816178Y4892865D01*
X1888769Y4892865D01*
X1931822Y4849812D01*
X4699000Y3200387D02*
G01*
X4699000Y2949994D01*
X5765774Y1600695D02*
G01*
X4625035Y1600695D01*
X4056710Y2169020D01*
X4056710Y2307704D01*
X4699000Y2949994D01*
X4699000Y2949994D02*
G01*
X5410200Y2949994D01*
X3683000Y4241787D02*
G01*
X4699000Y3225787D01*
X4699000Y3200387D01*
X5758179Y3239757D02*
G01*
X4738370Y3239757D01*
X4699000Y3200387D01*
X5228793Y2311387D02*
G01*
X6022340Y3104934D01*
X6022340Y3367417D01*
X5159857Y4229900D01*
X4686350Y4229900D01*
X4775200Y2311387D02*
G01*
X5228793Y2311387D01*
X5228793Y2311387D02*
G01*
X5410200Y2129980D01*
X3479800Y2235187D02*
G01*
X3479800Y2701074D01*
X3110763Y3070110D01*
X2536697Y3070110D01*
X990600Y1524012D01*
X4775200Y1803387D02*
G01*
X4782693Y1810880D01*
X5904356Y1810880D01*
X6383020Y3239757D02*
G01*
X6383020Y2289543D01*
X5904356Y1810880D01*
X6383020Y3239757D02*
G01*
X6563537Y3420275D01*
X6563537Y4574349D01*
X6362700Y4775187D01*
X5904356Y1810880D02*
G01*
X6019774Y1695462D01*
X6019774Y1600695D01*
X584200Y3657612D02*
G01*
X446557Y3519970D01*
X446557Y1306055D01*
X912444Y840168D01*
X912444Y840168D02*
G01*
X990600Y762012D01*
X1471803Y4349813D02*
G01*
X1349222Y4227233D01*
X1349222Y3757968D01*
X1446758Y3660432D01*
X2895371Y3660432D01*
X912444Y840168D02*
G01*
X1065987Y840168D01*
X1335430Y1109611D01*
X1335430Y1541995D01*
X2388692Y2595257D01*
X2747289Y2595257D01*
X3283305Y2059241D01*
X3550183Y2059241D01*
X3657472Y2166531D01*
X3657472Y2898330D01*
X2895371Y3660432D01*
X2895371Y3660432D02*
G01*
X2895371Y3768077D01*
X3902481Y4775187D01*
X6362700Y4775187D01*
X4178300Y4483087D02*
G01*
X5926074Y4483087D01*
X6141974Y4267187D01*
X6362700Y4267187D02*
G01*
X6141974Y4267187D01*
X2971800Y1523987D02*
G01*
X2971774Y1524012D01*
X2514600Y1524012D01*
X584200Y4165612D02*
G01*
X889000Y4165612D01*
X990600Y1778012D02*
G01*
X1699844Y2487256D01*
X1699844Y3162414D01*
X1216126Y3646131D01*
X1216126Y4349254D01*
X1405229Y4538357D01*
X1541678Y4538357D01*
X1781022Y4299013D01*
X1524000Y3835387D02*
G01*
X1524000Y4041990D01*
X1781022Y4299013D01*
X1781022Y4299013D02*
G01*
X1931822Y4449813D01*
D11*
G01*
X990600Y2286000D03*
G01*
X990600Y2032000D03*
G01*
X990600Y1778000D03*
G01*
X990600Y1524000D03*
G01*
X990600Y1270000D03*
G01*
X990600Y1016000D03*
G01*
X990600Y762000D03*
G01*
X990600Y508000D03*
G01*
X2514600Y508000D03*
G01*
X2514600Y762000D03*
G01*
X2514600Y1016000D03*
G01*
X2514600Y1270000D03*
G01*
X2514600Y1524000D03*
G01*
X2514600Y1778000D03*
G01*
X2514600Y2032000D03*
G01*
X2514600Y2286000D03*
D12*
G01*
X1523997Y3835392D03*
G01*
X1523997Y3073392D03*
D13*
G01*
X1471803Y4349800D03*
G01*
X1931822Y4449800D03*
G01*
X1931822Y4849799D03*
G01*
X1931822Y5149799D03*
D14*
G01*
X584200Y3657600D03*
G01*
X584200Y3911600D03*
G01*
X584200Y4165600D03*
G01*
X584200Y4419600D03*
D16*
G01*
X5758167Y3239762D03*
D17*
G01*
X6383007Y3239762D03*
G01*
X6042647Y3719822D03*
D18*
G01*
X5410189Y2129988D03*
G01*
X5410189Y2950001D03*
D19*
G01*
X3479792Y2235194D03*
G01*
X4241792Y2235194D03*
D20*
G01*
X6362687Y4775192D03*
D21*
G01*
X6362687Y4267192D03*
D22*
G01*
X4178292Y4483092D03*
G01*
X4686343Y4229905D03*
G01*
X4698992Y3200392D03*
G01*
X3682992Y4241792D03*
G01*
X3695641Y3212279D03*
D23*
G01*
X6019774Y1600692D03*
G01*
X6273800Y1599702D03*
D24*
G01*
X5765774Y1600692D03*
D25*
G01*
X4775189Y2057394D03*
G01*
X4775189Y1803394D03*
G01*
X4775189Y2311394D03*
D14*
G01*
X990600Y1778000D03*
G01*
X2971794Y1523997D03*
G01*
X888997Y4165600D03*
M02*
