G04 Layer: BottomLayer*
G04 EasyEDA v6.5.51, 2025-12-30 14:43:18*
G04 ec49201fdd3f43518bfe0915460f822b,324dd03f55b54ef1918ba81d68900132,10*
G04 Gerber Generator version 0.2*
G04 Scale: 100 percent, Rotated: No, Reflected: No *
G04 Dimensions in millimeters *
G04 leading zeros omitted , absolute positions ,4 integer and 5 decimal *
%FSLAX45Y45*%
%MOMM*%

%ADD10C,1.0000*%
%ADD11C,1.5000*%
%ADD12C,2.0000*%
%ADD13C,1.7000*%
%ADD14C,1.8800*%
%ADD15O,0.999998X2.099996*%
%ADD16O,0.019X2.099996*%
%ADD17C,1.8000*%
%ADD18C,1.9000*%
%ADD19C,2.4130*%
%ADD20R,2.4130X2.4130*%
%ADD21C,2.7940*%
%ADD22O,1.799996X2.599995*%
%ADD23R,1.8000X2.6000*%
%ADD24O,2.032X1.27*%

%LPD*%
D10*
X1471803Y4349800D02*
G01*
X1320797Y4198795D01*
X1320797Y3327392D01*
X489173Y3562586D02*
G01*
X489173Y3301992D01*
X711197Y3301992D01*
D11*
X584200Y3428992D02*
G01*
X584200Y3428989D01*
X711192Y3301997D01*
D10*
X584200Y3657600D02*
G01*
X584200Y3378192D01*
X584200Y3657612D02*
G01*
X449122Y3522535D01*
X449122Y1303489D01*
X990600Y762012D01*
D12*
X5410200Y2949981D02*
G01*
X5410200Y3098794D01*
X6611620Y3465829D02*
G01*
X6680200Y3534410D01*
X6705587Y4495789D01*
X6362700Y4775200D02*
G01*
X6426177Y4775200D01*
X6705587Y4495789D01*
D10*
X2514600Y1270000D02*
G01*
X2665729Y1118870D01*
X6089904Y1118870D01*
X6934200Y1963165D01*
X6934200Y4953000D01*
X6907529Y4979670D01*
X2479802Y4979670D01*
X2163825Y4663439D01*
X1869694Y4663439D01*
X1770887Y4762245D01*
X926845Y4762245D01*
X584200Y4419600D01*
D12*
X4699000Y3200400D02*
G01*
X5721446Y3200400D01*
X5986813Y3465766D01*
D10*
X6611620Y3465817D02*
G01*
X6611620Y4526292D01*
X6362700Y4775212D01*
D12*
X5862579Y4546615D02*
G01*
X5918164Y4546615D01*
X6146787Y4317992D01*
X4114797Y4546592D02*
G01*
X5862579Y4546615D01*
X5862594Y4546592D01*
D10*
X6362700Y4267212D02*
G01*
X6141974Y4267212D01*
X4775200Y2057412D02*
G01*
X4419600Y2057412D01*
X4241800Y2235212D01*
X6273800Y1599704D02*
G01*
X6273800Y1574076D01*
X5951600Y1251877D01*
X3808450Y1251877D01*
X2600985Y2459342D01*
X2436723Y2459342D01*
X1737334Y1759953D01*
X1737334Y1254747D01*
X990600Y508012D01*
X3479800Y2235212D02*
G01*
X3479800Y2698915D01*
X3100476Y3078238D01*
X2544825Y3078238D01*
X990600Y1524012D01*
X5410200Y2130005D02*
G01*
X5228793Y2311412D01*
X4775200Y2311412D01*
X4775200Y2311412D02*
G01*
X4775200Y2491143D01*
X3453384Y3812959D01*
X3453384Y4345622D01*
X3575126Y4467364D01*
X3769080Y4467364D01*
X4006519Y4229925D01*
X4686350Y4229925D01*
X4699000Y3200412D02*
G01*
X5159781Y3200412D01*
X5410200Y2949994D01*
X3683000Y4241812D02*
G01*
X4699000Y3225812D01*
X4699000Y3200412D01*
X5410200Y2949994D02*
G01*
X5925972Y3465766D01*
X5986805Y3465766D01*
X5410200Y2949994D02*
G01*
X5765800Y2594394D01*
X5765800Y1600720D01*
X6611620Y3465817D02*
G01*
X6611620Y2531656D01*
X6019800Y1939836D01*
X6019800Y1600720D01*
X6019800Y1600720D02*
G01*
X6019800Y1504607D01*
X5905728Y1390535D01*
X5188077Y1390535D01*
X4775200Y1803412D01*
X990600Y762012D02*
G01*
X1169238Y940650D01*
X1169238Y1375981D01*
X2390190Y2596934D01*
X2821304Y2596934D01*
X3358413Y2059825D01*
X3664686Y2059825D01*
X4775200Y1803412D02*
G01*
X3921099Y1803412D01*
X3664686Y2059825D01*
X1094282Y3073412D02*
G01*
X1524000Y3073412D01*
X1094282Y3073412D02*
G01*
X1094282Y2866605D01*
X811987Y2584310D01*
X811987Y1194625D01*
X990600Y1016012D01*
X1094282Y3073412D02*
G01*
X1094282Y3401529D01*
X584200Y3911612D01*
X584200Y3911612D02*
G01*
X405866Y4089946D01*
X405866Y4493399D01*
X805332Y4892865D01*
X1888769Y4892865D01*
X1931822Y4849812D01*
X584200Y4165612D02*
G01*
X889000Y4165612D01*
X2514600Y1524012D02*
G01*
X2971800Y1524012D01*
X1931822Y4449813D02*
G01*
X1524000Y4041990D01*
X1524000Y3835412D01*
X1524000Y3835412D02*
G01*
X1701469Y3657942D01*
X1701469Y2488882D01*
X990600Y1778012D01*
D13*
G01*
X990600Y2286000D03*
G01*
X990600Y2032000D03*
G01*
X990600Y1778000D03*
G01*
X990600Y1524000D03*
G01*
X990600Y1270000D03*
G01*
X990600Y1016000D03*
G01*
X990600Y762000D03*
G01*
X990600Y508000D03*
G01*
X2514600Y508000D03*
G01*
X2514600Y762000D03*
G01*
X2514600Y1016000D03*
G01*
X2514600Y1270000D03*
G01*
X2514600Y1524000D03*
G01*
X2514600Y1778000D03*
G01*
X2514600Y2032000D03*
G01*
X2514600Y2286000D03*
D14*
G01*
X1524000Y3835400D03*
G01*
X1524000Y3073400D03*
D15*
G01*
X1471803Y4349800D03*
G01*
X1931822Y4449800D03*
G01*
X1931822Y4849799D03*
G01*
X1931822Y5149799D03*
D17*
G01*
X584200Y3657600D03*
G01*
X584200Y3911600D03*
G01*
X584200Y4165600D03*
G01*
X584200Y4419600D03*
D18*
G01*
X5410200Y2129993D03*
G01*
X5410200Y2949981D03*
D14*
G01*
X3479800Y2235200D03*
G01*
X4241800Y2235200D03*
D19*
G01*
X6362700Y4775200D03*
D20*
G01*
X6362700Y4267200D03*
D21*
G01*
X4178300Y4483100D03*
G01*
X4686350Y4229912D03*
G01*
X4699000Y3200400D03*
G01*
X3683000Y4241800D03*
G01*
X3695649Y3212287D03*
D22*
G01*
X6019800Y1600707D03*
G01*
X6273800Y1599692D03*
D23*
G01*
X5765800Y1600707D03*
D24*
G01*
X4775200Y2057400D03*
G01*
X4775200Y1803400D03*
G01*
X4775200Y2311400D03*
D17*
G01*
X990600Y1778000D03*
G01*
X2971800Y1524000D03*
G01*
X889000Y4165600D03*
G01*
X711197Y3301992D03*
G01*
X1320797Y3327392D03*
M02*
