M48
METRIC,LZ,000.000
;FILE_FORMAT=3:3
;TYPE=PLATED
;Layer: PTH_Through
;EasyEDA v6.5.51, 2025-10-31 17:09:16
;34f21dd9564c439385c59d992ad412c1,324dd03f55b54ef1918ba81d68900132,10
;Gerber Generator version 0.2
;Holesize 1 = 0.600 mm
T01C0.600
;Holesize 2 = 1.000 mm
T02C1.000
;Holesize 3 = 1.050 mm
T03C1.050
%
G05
G90
T01
X014718Y043048G85X014718Y043948
X019318Y044048G85X019318Y044948
X019318Y048048G85X019318Y048948
X019318Y051048G85X019318Y051948
T02
X009906Y022860
X009906Y020320
X009906Y017780
X009906Y015240
X009906Y012700
X009906Y010160
X009906Y007620
X009906Y005080
X025146Y005080
X025146Y007620
X025146Y010160
X025146Y012700
X025146Y015240
X025146Y017780
X025146Y020320
X025146Y022860
X016002Y030734
X023622Y030734
X005842Y036576
X005842Y039116
X005842Y041656
X005842Y044196
X015748Y033274
X015748Y040894
T03
X009906Y017780
M30
