G04 Layer: BottomLayer*
G04 EasyEDA v6.5.51, 2025-10-31 17:09:16*
G04 34f21dd9564c439385c59d992ad412c1,324dd03f55b54ef1918ba81d68900132,10*
G04 Gerber Generator version 0.2*
G04 Scale: 100 percent, Rotated: No, Reflected: No *
G04 Dimensions in millimeters *
G04 leading zeros omitted , absolute positions ,4 integer and 5 decimal *
%FSLAX45Y45*%
%MOMM*%

%ADD10C,1.0000*%
%ADD11C,1.7000*%
%ADD12C,1.8800*%
%ADD13O,0.999998X2.099996*%
%ADD14C,1.8000*%
%ADD15C,0.0139*%

%LPD*%
D10*
X584197Y3657602D02*
G01*
X418774Y3492167D01*
X418774Y1333825D01*
X990605Y762002D01*
X1471777Y4349800D02*
G01*
X1220779Y4600801D01*
X515896Y4600801D01*
X399587Y4484504D01*
X399587Y3842212D01*
X584197Y3657602D01*
X584197Y4165602D02*
G01*
X1000277Y4165602D01*
X1856684Y3309195D01*
X1856684Y2181908D01*
X2514605Y1524002D01*
X1574805Y4089402D02*
G01*
X1931791Y4446404D01*
X1931791Y4449803D01*
X1931791Y4849802D02*
G01*
X2362205Y4419404D01*
X2362205Y3073402D01*
X584197Y3911602D02*
G01*
X836343Y3659456D01*
X836343Y2749750D01*
X820171Y2733578D01*
X820171Y1186436D01*
X990605Y1016002D01*
X990605Y1016002D02*
G01*
X1672435Y334164D01*
X2575895Y334164D01*
X2822950Y581230D01*
X2822950Y2612644D01*
X2362205Y3073402D01*
X584197Y4419602D02*
G01*
X930402Y4419602D01*
X1986897Y3363109D01*
X1986897Y3200712D01*
X2691945Y2495651D01*
X2691945Y1447337D01*
X2514605Y1270002D01*
X1574805Y3327402D02*
G01*
X1574805Y3213102D01*
X1574805Y3213102D02*
G01*
X1574805Y3098802D01*
X1600205Y3073402D01*
X1574805Y3213102D02*
G01*
X1574805Y2362202D01*
X990605Y1778002D01*
D11*
G01*
X990600Y2286000D03*
G01*
X990600Y2032000D03*
G01*
X990600Y1778000D03*
G01*
X990600Y1524000D03*
G01*
X990600Y1270000D03*
G01*
X990600Y1016000D03*
G01*
X990600Y762000D03*
G01*
X990600Y508000D03*
G01*
X2514600Y508000D03*
G01*
X2514600Y762000D03*
G01*
X2514600Y1016000D03*
G01*
X2514600Y1270000D03*
G01*
X2514600Y1524000D03*
G01*
X2514600Y1778000D03*
G01*
X2514600Y2032000D03*
G01*
X2514600Y2286000D03*
D12*
G01*
X1600200Y3073400D03*
G01*
X2362200Y3073400D03*
D13*
G01*
X1471790Y4349795D03*
G01*
X1931809Y4449795D03*
G01*
X1931809Y4849794D03*
G01*
X1931809Y5149794D03*
D14*
G01*
X584200Y3657592D03*
G01*
X584200Y3911592D03*
G01*
X584200Y4165592D03*
G01*
X584200Y4419592D03*
D12*
G01*
X1574797Y3327392D03*
G01*
X1574797Y4089392D03*
D14*
G01*
X990600Y1778000D03*
M02*
