M48
METRIC,LZ,000.000
;FILE_FORMAT=3:3
;TYPE=PLATED
;Layer: PTH_Through
;EasyEDA v6.5.51, 2026-01-24 10:34:36
;29b14c72bbf34557a5b9d223c244f965,324dd03f55b54ef1918ba81d68900132,10
;Gerber Generator version 0.2
;Holesize 1 = 0.701 mm
T01C0.701
;Holesize 2 = 1.101 mm
T02C1.101
;Holesize 3 = 1.301 mm
T03C1.301
%
G05
G90
T01
X021209Y030516
X021209Y022316
X012954Y023368
X012954Y030988
X018531Y044958
X017029Y044958
X031739Y044704
X030237Y044704
X017399Y035179
X017399Y037719
X017399Y032639
T02
X020447Y018161
X017907Y018161
X015367Y018161
X012827Y018161
X010287Y018161
X007747Y018161
X005207Y018161
X002667Y018161
X002667Y002921
X005207Y002921
X007747Y002921
X010287Y002921
X012827Y002921
X015367Y002921
X017907Y002921
X020447Y002921
X025776Y042037
X025786Y044577
X025776Y039497
T03
X039624Y045082G85X039624Y045088
X039624Y040002G85X039624Y040008
X040259Y009141G85X040259Y009147
X040259Y004061G85X040259Y004067
X032258Y032258
X037339Y029726
X037465Y019431
X027305Y029845
X027431Y019550
M30
