G04 Layer: BottomLayer*
G04 EasyEDA v6.5.51, 2026-01-24 10:34:36*
G04 29b14c72bbf34557a5b9d223c244f965,324dd03f55b54ef1918ba81d68900132,10*
G04 Gerber Generator version 0.2*
G04 Scale: 100 percent, Rotated: No, Reflected: No *
G04 Dimensions in millimeters *
G04 leading zeros omitted , absolute positions ,4 integer and 5 decimal *
%FSLAX45Y45*%
%MOMM*%

%ADD10C,3.0000*%
%ADD11C,4.0000*%
%ADD12C,5.0000*%
%ADD13C,1.0000*%
%ADD14C,1.6000*%
%ADD15C,2.4130*%
%ADD16C,0.0119*%
%ADD17R,2.4130X2.4130*%
%ADD18C,1.8796*%
%ADD19C,1.7000*%
%ADD20C,2.7940*%
%ADD21O,2.599995X1.799996*%
%ADD22R,2.6000X1.8000*%
%ADD23O,2.032X1.27*%

%LPD*%
D10*
X3962392Y4000492D02*
G01*
X3741691Y4000492D01*
D11*
X3741691Y4000492D02*
G01*
X3334765Y3593594D01*
X3334806Y3593592D01*
X2730494Y1942297D02*
G01*
X2730500Y1942337D01*
X2730500Y419100D01*
X4025900Y406400D01*
X2730494Y419100D01*
D12*
X4025900Y914400D02*
G01*
X4483100Y914400D01*
X3962400Y4508500D02*
G01*
X4483100Y4508500D01*
X4483100Y914400D01*
D13*
X1739900Y3263902D02*
G01*
X1908606Y3263902D01*
X2120900Y3051609D01*
X1739900Y3771902D02*
G01*
X1712391Y3771902D01*
X520700Y2580210D01*
X520700Y1816102D01*
X1295400Y3098802D02*
G01*
X1714500Y3517902D01*
X1739900Y3517902D01*
D10*
X3225792Y3593592D02*
G01*
X3225792Y3225792D01*
D13*
X4025900Y914400D02*
G01*
X4483100Y914400D01*
X4470400Y127000D01*
X2505709Y114300D01*
X1372870Y1247139D01*
X1089660Y1247139D01*
X520700Y1816100D01*
D10*
X2743194Y1954994D02*
G01*
X2743149Y1954987D01*
D13*
X1282700Y1816102D02*
G01*
X1282700Y2324102D01*
X1295400Y2336802D01*
X2730500Y2984502D02*
G01*
X2188006Y2984502D01*
X2120900Y3051609D01*
X3023743Y4470402D02*
G01*
X2591308Y4470402D01*
X2578608Y4457702D01*
X1853056Y4495802D02*
G01*
X2540508Y4495802D01*
X2578608Y4457702D01*
X1853056Y4495802D02*
G01*
X1853056Y4534766D01*
X1750796Y4637026D01*
X1658416Y4637026D01*
X266700Y3245309D01*
X266700Y1816102D01*
X3173856Y4470402D02*
G01*
X3924300Y4470402D01*
X3962400Y4508502D01*
X2577617Y4203677D02*
G01*
X2969412Y4203677D01*
X3173856Y4408121D01*
X3173856Y4470402D01*
X1702943Y4495802D02*
G01*
X1702943Y4434918D01*
X2188184Y3949677D01*
X2577617Y3949677D01*
X3733850Y2972615D02*
G01*
X3480663Y3225802D01*
X3225800Y3225802D01*
X3733850Y2972615D02*
G01*
X2992831Y2231595D01*
X2120900Y2231595D01*
X3225800Y3593594D02*
G01*
X2743631Y3593594D01*
X2577617Y3759608D01*
X2577617Y3949677D02*
G01*
X2577617Y3759608D01*
D14*
G01*
X2120900Y3051606D03*
G01*
X2120900Y2231593D03*
D15*
G01*
X3962400Y4508500D03*
D17*
G01*
X3962400Y4000500D03*
D15*
G01*
X4025900Y914400D03*
D17*
G01*
X4025900Y406400D03*
D18*
G01*
X1295400Y2336800D03*
G01*
X1295400Y3098800D03*
D19*
G01*
X2044700Y1816097D03*
G01*
X1790700Y1816097D03*
G01*
X1536700Y1816097D03*
G01*
X1282700Y1816097D03*
G01*
X1028700Y1816097D03*
G01*
X774700Y1816097D03*
G01*
X520700Y1816097D03*
G01*
X266700Y1816097D03*
G01*
X266700Y292097D03*
G01*
X520700Y292097D03*
G01*
X774700Y292097D03*
G01*
X1028700Y292097D03*
G01*
X1282700Y292097D03*
G01*
X1536700Y292097D03*
G01*
X1790700Y292097D03*
G01*
X2044700Y292097D03*
D20*
G01*
X3225800Y3225800D03*
G01*
X3733850Y2972612D03*
G01*
X3746500Y1943100D03*
G01*
X2730500Y2984500D03*
G01*
X2743149Y1954987D03*
D21*
G01*
X2577604Y4203687D03*
G01*
X2578595Y4457712D03*
D22*
G01*
X2577604Y3949687D03*
D13*
G01*
X1853067Y4495789D03*
G01*
X1702953Y4495789D03*
G01*
X3173867Y4470389D03*
G01*
X3023753Y4470389D03*
D23*
G01*
X1739900Y3517900D03*
G01*
X1739900Y3771900D03*
G01*
X1739900Y3263900D03*
M02*
