M48
METRIC,LZ,000.000
;FILE_FORMAT=3:3
;TYPE=PLATED
;Layer: PTH_Through
;EasyEDA v6.5.51, 2025-10-31 17:09:16
;2a876ee2f8c64fd6b9d8811a9e17b5e1,324dd03f55b54ef1918ba81d68900132,10
;Gerber Generator version 0.2
;Holesize 1 = 0.701 mm
T01C0.701
;Holesize 2 = 1.000 mm
T02C1.000
%
G05
G90
T01
X043053Y082804
X043053Y075184
X052270Y080000
X051000Y080000
X049730Y080000
T02
X011938Y070104
X014478Y070104
X017018Y070104
X019558Y070104
X022098Y070104
X024638Y070104
X027178Y070104
X029718Y070104
X029718Y087884
X027178Y087884
X024638Y087884
X022098Y087884
X019558Y087884
X017018Y087884
X014478Y087884
X011938Y087884
M30
