M48
METRIC,LZ,000.000
;FILE_FORMAT=3:3
;TYPE=PLATED
;Layer: PTH_Through
;EasyEDA v6.5.51, 2025-10-31 17:09:16
;102b84f34d0d482ab415f6a37647b807,324dd03f55b54ef1918ba81d68900132,10
;Gerber Generator version 0.2
;Holesize 1 = 0.701 mm
T01C0.701
;Holesize 2 = 0.900 mm
T02C0.900
;Holesize 3 = 1.000 mm
T03C1.000
%
G05
G90
T01
X052270Y080000
X051000Y080000
X049730Y080000
T02
X043000Y084810
X043000Y077190
T03
X032890Y087620
X030350Y087620
X027810Y087620
X025270Y087620
X022730Y087620
X020190Y087620
X017650Y087620
X015110Y087620
X015110Y072380
X017650Y072380
X020190Y072380
X022730Y072380
X025270Y072380
X027810Y072380
X030350Y072380
X032890Y072380
M30
