G04 Layer: BottomLayer*
G04 EasyEDA v6.5.51, 2025-10-31 17:09:16*
G04 2a876ee2f8c64fd6b9d8811a9e17b5e1,324dd03f55b54ef1918ba81d68900132,10*
G04 Gerber Generator version 0.2*
G04 Scale: 100 percent, Rotated: No, Reflected: No *
G04 Dimensions in millimeters *
G04 leading zeros omitted , absolute positions ,4 integer and 5 decimal *
%FSLAX45Y45*%
%MOMM*%

%ADD10C,1.0000*%
%ADD11C,1.8800*%
%ADD12O,0.899998X1.599997*%
%ADD13R,0.9000X1.6000*%
%ADD14R,1.3000X3.0000*%
%ADD15R,1.3300X3.0000*%
%ADD16R,0.0146X3.0000*%

%LPD*%
D10*
X1701802Y9038460D02*
G01*
X4508654Y9038460D01*
X5252671Y8294443D01*
X5252671Y8025660D01*
X5226992Y7999981D01*
X5120845Y8124314D02*
G01*
X5099992Y8103461D01*
X5099992Y7999981D01*
X5120845Y8124314D02*
G01*
X5120845Y8223120D01*
X5016096Y8327870D01*
X4352775Y8327870D01*
X4305302Y8280397D01*
X2463802Y8538309D02*
G01*
X4047390Y8538309D01*
X4305302Y8280397D01*
X2463802Y8788397D02*
G01*
X2463802Y8538309D01*
X4972992Y8180067D02*
G01*
X4900449Y8180067D01*
X4810406Y8090024D01*
X1896087Y8090024D01*
X1447802Y8538309D01*
X4972992Y7999981D02*
G01*
X4972992Y8180067D01*
X1447802Y8788397D02*
G01*
X1447802Y8538309D01*
X5226992Y7999981D02*
G01*
X5226992Y7895917D01*
X4849472Y7518397D01*
X4305302Y7518397D01*
X1701802Y8788397D02*
G01*
X1701802Y9038460D01*
D11*
G01*
X4305292Y8280382D03*
G01*
X4305292Y7518384D03*
D12*
G01*
X5226989Y7999984D03*
G01*
X5099989Y7999984D03*
D13*
G01*
X4972989Y7999984D03*
D14*
G01*
X1193800Y7010400D03*
G01*
X1447800Y7010400D03*
G01*
X1701800Y7010400D03*
G01*
X1955800Y7010400D03*
G01*
X2209800Y7010400D03*
G01*
X2463800Y7010400D03*
G01*
X2717800Y7010400D03*
D15*
G01*
X2971800Y7010400D03*
D14*
G01*
X2971800Y8788400D03*
G01*
X2717800Y8788400D03*
G01*
X2463800Y8788400D03*
G01*
X2209800Y8788400D03*
G01*
X1955800Y8788400D03*
G01*
X1701800Y8788400D03*
G01*
X1447800Y8788400D03*
G01*
X1193800Y8788400D03*
M02*
